<?xml version="1.0" encoding="utf-8" standalone="no"?>
<!DOCTYPE svg PUBLIC "-//W3C//DTD SVG 1.1//EN"
  "http://www.w3.org/Graphics/SVG/1.1/DTD/svg11.dtd">
<svg xmlns:xlink="http://www.w3.org/1999/xlink" width="636.418666pt" height="298.767352pt" viewBox="0 0 636.418666 298.767352" xmlns="http://www.w3.org/2000/svg" version="1.1">
 <metadata>
  <rdf:RDF xmlns:dc="http://purl.org/dc/elements/1.1/" xmlns:cc="http://creativecommons.org/ns#" xmlns:rdf="http://www.w3.org/1999/02/22-rdf-syntax-ns#">
   <cc:Work>
    <dc:type rdf:resource="http://purl.org/dc/dcmitype/StillImage"/>
    <dc:date>2026-08-05T21:07:09.939685</dc:date>
    <dc:format>image/svg+xml</dc:format>
    <dc:creator>
     <cc:Agent>
      <dc:title>Matplotlib v3.9.2, https://matplotlib.org/</dc:title>
     </cc:Agent>
    </dc:creator>
   </cc:Work>
  </rdf:RDF>
 </metadata>
 <defs>
  <style type="text/css">*{stroke-linejoin: round; stroke-linecap: butt}</style>
 </defs>
 <g id="figure_1">
  <g id="patch_1">
   <path d="M 0 298.767352 
L 636.418666 298.767352 
L 636.418666 0 
L 0 0 
z
" style="fill: #ffffff"/>
  </g>
  <g id="axes_1">
   <g id="patch_2">
    <path d="M 72.06 257.339852 
L 629.218666 257.339852 
L 629.218666 13.221852 
L 72.06 13.221852 
z
" style="fill: #ffffff"/>
   </g>
   <g id="matplotlib.axis_1">
    <g id="xtick_1">
     <g id="line2d_1">
      <defs>
       <path id="m08d53ae6bc" d="M 0 0 
L 0 3.5 
" style="stroke: #000000; stroke-width: 0.8"/>
      </defs>
      <g>
       <use xlink:href="#m08d53ae6bc" x="392.218338" y="257.339852" style="stroke: #000000; stroke-width: 0.8"/>
      </g>
     </g>
     <g id="text_1">
      <!-- $e^{SB}$ -->
      <g transform="translate(382.498338 273.457977) scale(0.12 -0.12)">
       <defs>
        <path id="DejaVuSans-Oblique-65" d="M 3078 2063 
Q 3088 2113 3092 2166 
Q 3097 2219 3097 2272 
Q 3097 2653 2873 2875 
Q 2650 3097 2266 3097 
Q 1838 3097 1509 2826 
Q 1181 2556 1013 2059 
L 3078 2063 
z
M 3578 1613 
L 903 1613 
Q 884 1494 878 1425 
Q 872 1356 872 1306 
Q 872 872 1139 634 
Q 1406 397 1894 397 
Q 2269 397 2603 481 
Q 2938 566 3225 728 
L 3116 159 
Q 2806 34 2476 -28 
Q 2147 -91 1806 -91 
Q 1078 -91 686 257 
Q 294 606 294 1247 
Q 294 1794 489 2264 
Q 684 2734 1063 3103 
Q 1306 3334 1642 3459 
Q 1978 3584 2356 3584 
Q 2950 3584 3301 3228 
Q 3653 2872 3653 2272 
Q 3653 2128 3634 1964 
Q 3616 1800 3578 1613 
z
" transform="scale(0.015625)"/>
        <path id="DejaVuSans-Oblique-53" d="M 3859 4513 
L 3738 3897 
Q 3422 4066 3111 4152 
Q 2800 4238 2509 4238 
Q 1944 4238 1609 3991 
Q 1275 3744 1275 3334 
Q 1275 3109 1398 2989 
Q 1522 2869 2034 2731 
L 2413 2638 
Q 3053 2472 3303 2217 
Q 3553 1963 3553 1503 
Q 3553 797 2998 353 
Q 2444 -91 1538 -91 
Q 1166 -91 791 -17 
Q 416 56 38 206 
L 166 856 
Q 513 641 861 531 
Q 1209 422 1556 422 
Q 2147 422 2503 684 
Q 2859 947 2859 1369 
Q 2859 1650 2717 1795 
Q 2575 1941 2106 2059 
L 1728 2156 
Q 1081 2325 845 2545 
Q 609 2766 609 3163 
Q 609 3859 1145 4304 
Q 1681 4750 2541 4750 
Q 2875 4750 3203 4690 
Q 3531 4631 3859 4513 
z
" transform="scale(0.015625)"/>
        <path id="DejaVuSans-Oblique-42" d="M 1081 4666 
L 2694 4666 
Q 3350 4666 3675 4422 
Q 4000 4178 4000 3688 
Q 4000 3238 3720 2911 
Q 3441 2584 2988 2516 
Q 3375 2428 3569 2181 
Q 3763 1934 3763 1522 
Q 3763 819 3242 409 
Q 2722 0 1819 0 
L 172 0 
L 1081 4666 
z
M 1234 2228 
L 903 519 
L 1919 519 
Q 2491 519 2800 781 
Q 3109 1044 3109 1522 
Q 3109 1891 2904 2059 
Q 2700 2228 2247 2228 
L 1234 2228 
z
M 1606 4147 
L 1331 2741 
L 2272 2741 
Q 2775 2741 3058 2959 
Q 3341 3178 3341 3566 
Q 3341 3869 3150 4008 
Q 2959 4147 2541 4147 
L 1606 4147 
z
" transform="scale(0.015625)"/>
       </defs>
       <use xlink:href="#DejaVuSans-Oblique-65" transform="translate(0 0.765625)"/>
       <use xlink:href="#DejaVuSans-Oblique-53" transform="translate(66.173333 39.046875) scale(0.7)"/>
       <use xlink:href="#DejaVuSans-Oblique-42" transform="translate(110.606927 39.046875) scale(0.7)"/>
      </g>
     </g>
    </g>
    <g id="xtick_2">
     <g id="line2d_2">
      <g>
       <use xlink:href="#m08d53ae6bc" x="490.495986" y="257.339852" style="stroke: #000000; stroke-width: 0.8"/>
      </g>
     </g>
     <g id="text_2">
      <!-- $e^{FB}$ -->
      <g transform="translate(481.015986 273.457977) scale(0.12 -0.12)">
       <defs>
        <path id="DejaVuSans-Oblique-46" d="M 1081 4666 
L 3756 4666 
L 3653 4134 
L 1606 4134 
L 1338 2759 
L 3188 2759 
L 3084 2228 
L 1234 2228 
L 800 0 
L 172 0 
L 1081 4666 
z
" transform="scale(0.015625)"/>
       </defs>
       <use xlink:href="#DejaVuSans-Oblique-65" transform="translate(0 0.684375)"/>
       <use xlink:href="#DejaVuSans-Oblique-46" transform="translate(66.173333 38.965625) scale(0.7)"/>
       <use xlink:href="#DejaVuSans-Oblique-42" transform="translate(106.437005 38.965625) scale(0.7)"/>
      </g>
     </g>
    </g>
    <g id="text_3">
     <!-- esforço $e$ -->
     <g transform="translate(322.979333 289.071727) scale(0.12 -0.12)">
      <defs>
       <path id="DejaVuSans-65" d="M 3597 1894 
L 3597 1613 
L 953 1613 
Q 991 1019 1311 708 
Q 1631 397 2203 397 
Q 2534 397 2845 478 
Q 3156 559 3463 722 
L 3463 178 
Q 3153 47 2828 -22 
Q 2503 -91 2169 -91 
Q 1331 -91 842 396 
Q 353 884 353 1716 
Q 353 2575 817 3079 
Q 1281 3584 2069 3584 
Q 2775 3584 3186 3129 
Q 3597 2675 3597 1894 
z
M 3022 2063 
Q 3016 2534 2758 2815 
Q 2500 3097 2075 3097 
Q 1594 3097 1305 2825 
Q 1016 2553 972 2059 
L 3022 2063 
z
" transform="scale(0.015625)"/>
       <path id="DejaVuSans-73" d="M 2834 3397 
L 2834 2853 
Q 2591 2978 2328 3040 
Q 2066 3103 1784 3103 
Q 1356 3103 1142 2972 
Q 928 2841 928 2578 
Q 928 2378 1081 2264 
Q 1234 2150 1697 2047 
L 1894 2003 
Q 2506 1872 2764 1633 
Q 3022 1394 3022 966 
Q 3022 478 2636 193 
Q 2250 -91 1575 -91 
Q 1294 -91 989 -36 
Q 684 19 347 128 
L 347 722 
Q 666 556 975 473 
Q 1284 391 1588 391 
Q 1994 391 2212 530 
Q 2431 669 2431 922 
Q 2431 1156 2273 1281 
Q 2116 1406 1581 1522 
L 1381 1569 
Q 847 1681 609 1914 
Q 372 2147 372 2553 
Q 372 3047 722 3315 
Q 1072 3584 1716 3584 
Q 2034 3584 2315 3537 
Q 2597 3491 2834 3397 
z
" transform="scale(0.015625)"/>
       <path id="DejaVuSans-66" d="M 2375 4863 
L 2375 4384 
L 1825 4384 
Q 1516 4384 1395 4259 
Q 1275 4134 1275 3809 
L 1275 3500 
L 2222 3500 
L 2222 3053 
L 1275 3053 
L 1275 0 
L 697 0 
L 697 3053 
L 147 3053 
L 147 3500 
L 697 3500 
L 697 3744 
Q 697 4328 969 4595 
Q 1241 4863 1831 4863 
L 2375 4863 
z
" transform="scale(0.015625)"/>
       <path id="DejaVuSans-6f" d="M 1959 3097 
Q 1497 3097 1228 2736 
Q 959 2375 959 1747 
Q 959 1119 1226 758 
Q 1494 397 1959 397 
Q 2419 397 2687 759 
Q 2956 1122 2956 1747 
Q 2956 2369 2687 2733 
Q 2419 3097 1959 3097 
z
M 1959 3584 
Q 2709 3584 3137 3096 
Q 3566 2609 3566 1747 
Q 3566 888 3137 398 
Q 2709 -91 1959 -91 
Q 1206 -91 779 398 
Q 353 888 353 1747 
Q 353 2609 779 3096 
Q 1206 3584 1959 3584 
z
" transform="scale(0.015625)"/>
       <path id="DejaVuSans-72" d="M 2631 2963 
Q 2534 3019 2420 3045 
Q 2306 3072 2169 3072 
Q 1681 3072 1420 2755 
Q 1159 2438 1159 1844 
L 1159 0 
L 581 0 
L 581 3500 
L 1159 3500 
L 1159 2956 
Q 1341 3275 1631 3429 
Q 1922 3584 2338 3584 
Q 2397 3584 2469 3576 
Q 2541 3569 2628 3553 
L 2631 2963 
z
" transform="scale(0.015625)"/>
       <path id="DejaVuSans-e7" d="M 3122 3366 
L 3122 2828 
Q 2878 2963 2633 3030 
Q 2388 3097 2138 3097 
Q 1578 3097 1268 2742 
Q 959 2388 959 1747 
Q 959 1106 1268 751 
Q 1578 397 2138 397 
Q 2388 397 2633 464 
Q 2878 531 3122 666 
L 3122 134 
Q 2881 22 2623 -34 
Q 2366 -91 2075 -91 
Q 1284 -91 818 406 
Q 353 903 353 1747 
Q 353 2603 823 3093 
Q 1294 3584 2113 3584 
Q 2378 3584 2631 3529 
Q 2884 3475 3122 3366 
z
M 2309 0 
Q 2481 -194 2565 -358 
Q 2650 -522 2650 -672 
Q 2650 -950 2462 -1092 
Q 2275 -1234 1906 -1234 
Q 1763 -1234 1627 -1215 
Q 1491 -1197 1356 -1159 
L 1356 -750 
Q 1463 -803 1578 -826 
Q 1694 -850 1841 -850 
Q 2025 -850 2119 -775 
Q 2213 -700 2213 -556 
Q 2213 -463 2145 -327 
Q 2078 -191 1938 0 
L 2309 0 
z
" transform="scale(0.015625)"/>
       <path id="DejaVuSans-20" transform="scale(0.015625)"/>
      </defs>
      <use xlink:href="#DejaVuSans-65" transform="translate(0 0.015625)"/>
      <use xlink:href="#DejaVuSans-73" transform="translate(61.523438 0.015625)"/>
      <use xlink:href="#DejaVuSans-66" transform="translate(113.623047 0.015625)"/>
      <use xlink:href="#DejaVuSans-6f" transform="translate(148.828125 0.015625)"/>
      <use xlink:href="#DejaVuSans-72" transform="translate(210.009766 0.015625)"/>
      <use xlink:href="#DejaVuSans-e7" transform="translate(251.123047 0.015625)"/>
      <use xlink:href="#DejaVuSans-6f" transform="translate(306.103516 0.015625)"/>
      <use xlink:href="#DejaVuSans-20" transform="translate(367.285156 0.015625)"/>
      <use xlink:href="#DejaVuSans-Oblique-65" transform="translate(399.072266 0.015625)"/>
     </g>
    </g>
   </g>
   <g id="matplotlib.axis_2">
    <g id="ytick_1">
     <g id="line2d_3">
      <defs>
       <path id="m3c0b8f2887" d="M 0 0 
L -3.5 0 
" style="stroke: #000000; stroke-width: 0.8"/>
      </defs>
      <g>
       <use xlink:href="#m3c0b8f2887" x="72.06" y="202.676987" style="stroke: #000000; stroke-width: 0.8"/>
      </g>
     </g>
     <g id="text_4">
      <!-- $\frac{1}{1+\alpha\sigma^2 c\,\prime\prime(e^{SB})}$ -->
      <g transform="translate(7.2 207.901987) scale(0.11 -0.11)">
       <defs>
        <path id="DejaVuSans-31" d="M 794 531 
L 1825 531 
L 1825 4091 
L 703 3866 
L 703 4441 
L 1819 4666 
L 2450 4666 
L 2450 531 
L 3481 531 
L 3481 0 
L 794 0 
L 794 531 
z
" transform="scale(0.015625)"/>
        <path id="DejaVuSans-2b" d="M 2944 4013 
L 2944 2272 
L 4684 2272 
L 4684 1741 
L 2944 1741 
L 2944 0 
L 2419 0 
L 2419 1741 
L 678 1741 
L 678 2272 
L 2419 2272 
L 2419 4013 
L 2944 4013 
z
" transform="scale(0.015625)"/>
        <path id="DejaVuSans-Oblique-3b1" d="M 2619 1628 
L 2622 2350 
Q 2625 3088 2069 3091 
Q 1653 3094 1394 2747 
Q 1069 2319 959 1747 
Q 825 1059 994 731 
Q 1169 397 1547 397 
Q 1966 397 2319 1063 
L 2619 1628 
z
M 2166 3578 
Q 3141 3594 3128 2584 
Q 3128 2584 3616 3500 
L 4128 3500 
L 3119 1603 
L 3109 919 
Q 3109 766 3194 638 
Q 3291 488 3391 488 
L 3669 488 
L 3575 0 
L 3228 0 
Q 2934 0 2722 263 
Q 2622 394 2619 669 
Q 2416 334 2066 50 
Q 1900 -81 1453 -78 
Q 722 -72 456 397 
Q 184 884 353 1747 
Q 534 2675 1009 3097 
Q 1544 3569 2166 3578 
z
" transform="scale(0.015625)"/>
        <path id="DejaVuSans-Oblique-3c3" d="M 2219 3044 
Q 1744 3044 1422 2700 
Q 1081 2341 969 1747 
Q 844 1119 1044 756 
Q 1241 397 1706 397 
Q 2166 397 2503 759 
Q 2844 1122 2966 1747 
Q 3075 2319 2881 2700 
Q 2700 3044 2219 3044 
z
M 2309 3503 
L 4219 3500 
L 4106 2925 
L 3463 2925 
Q 3706 2438 3575 1747 
Q 3406 888 2884 400 
Q 2359 -91 1609 -91 
Q 856 -91 525 400 
Q 194 888 363 1747 
Q 528 2609 1050 3097 
Q 1484 3503 2309 3503 
z
" transform="scale(0.015625)"/>
        <path id="DejaVuSans-32" d="M 1228 531 
L 3431 531 
L 3431 0 
L 469 0 
L 469 531 
Q 828 903 1448 1529 
Q 2069 2156 2228 2338 
Q 2531 2678 2651 2914 
Q 2772 3150 2772 3378 
Q 2772 3750 2511 3984 
Q 2250 4219 1831 4219 
Q 1534 4219 1204 4116 
Q 875 4013 500 3803 
L 500 4441 
Q 881 4594 1212 4672 
Q 1544 4750 1819 4750 
Q 2544 4750 2975 4387 
Q 3406 4025 3406 3419 
Q 3406 3131 3298 2873 
Q 3191 2616 2906 2266 
Q 2828 2175 2409 1742 
Q 1991 1309 1228 531 
z
" transform="scale(0.015625)"/>
        <path id="DejaVuSans-Oblique-63" d="M 3431 3366 
L 3316 2797 
Q 3109 2947 2876 3022 
Q 2644 3097 2394 3097 
Q 2119 3097 1870 3000 
Q 1622 2903 1453 2725 
Q 1184 2453 1037 2087 
Q 891 1722 891 1331 
Q 891 859 1127 628 
Q 1363 397 1844 397 
Q 2081 397 2348 469 
Q 2616 541 2906 684 
L 2797 116 
Q 2547 13 2283 -39 
Q 2019 -91 1741 -91 
Q 1044 -91 669 257 
Q 294 606 294 1253 
Q 294 1797 489 2255 
Q 684 2713 1069 3078 
Q 1331 3328 1684 3456 
Q 2038 3584 2456 3584 
Q 2700 3584 2940 3529 
Q 3181 3475 3431 3366 
z
" transform="scale(0.015625)"/>
        <path id="Cmsy10-30" d="M 225 347 
Q 184 359 184 409 
L 966 3316 
Q 1003 3434 1093 3506 
Q 1184 3578 1300 3578 
Q 1450 3578 1564 3479 
Q 1678 3381 1678 3231 
Q 1678 3166 1644 3084 
L 488 319 
Q 466 275 428 275 
Q 394 275 320 306 
Q 247 338 225 347 
z
" transform="scale(0.015625)"/>
        <path id="DejaVuSans-28" d="M 1984 4856 
Q 1566 4138 1362 3434 
Q 1159 2731 1159 2009 
Q 1159 1288 1364 580 
Q 1569 -128 1984 -844 
L 1484 -844 
Q 1016 -109 783 600 
Q 550 1309 550 2009 
Q 550 2706 781 3412 
Q 1013 4119 1484 4856 
L 1984 4856 
z
" transform="scale(0.015625)"/>
        <path id="DejaVuSans-29" d="M 513 4856 
L 1013 4856 
Q 1481 4119 1714 3412 
Q 1947 2706 1947 2009 
Q 1947 1309 1714 600 
Q 1481 -109 1013 -844 
L 513 -844 
Q 928 -128 1133 580 
Q 1338 1288 1338 2009 
Q 1338 2731 1133 3434 
Q 928 4138 513 4856 
z
" transform="scale(0.015625)"/>
       </defs>
       <use xlink:href="#DejaVuSans-31" transform="translate(234 43.965625) scale(0.7)"/>
       <use xlink:href="#DejaVuSans-31" transform="translate(0 -50.448437) scale(0.7)"/>
       <use xlink:href="#DejaVuSans-2b" transform="translate(58.173828 -50.448437) scale(0.7)"/>
       <use xlink:href="#DejaVuSans-Oblique-3b1" transform="translate(130.463867 -50.448437) scale(0.7)"/>
       <use xlink:href="#DejaVuSans-Oblique-3c3" transform="translate(176.606445 -50.448437) scale(0.7)"/>
       <use xlink:href="#DejaVuSans-32" transform="translate(224.102576 -23.651562) scale(0.49)"/>
       <use xlink:href="#DejaVuSans-Oblique-63" transform="translate(257.191931 -50.448437) scale(0.7)"/>
       <use xlink:href="#Cmsy10-30" transform="translate(307.043233 -50.448437) scale(0.7)"/>
       <use xlink:href="#Cmsy10-30" transform="translate(326.286397 -50.448437) scale(0.7)"/>
       <use xlink:href="#DejaVuSans-28" transform="translate(345.529561 -50.448437) scale(0.7)"/>
       <use xlink:href="#DejaVuSans-Oblique-65" transform="translate(372.839131 -50.448437) scale(0.7)"/>
       <use xlink:href="#DejaVuSans-Oblique-53" transform="translate(419.160464 -23.651562) scale(0.49)"/>
       <use xlink:href="#DejaVuSans-Oblique-42" transform="translate(450.26398 -23.651562) scale(0.49)"/>
       <use xlink:href="#DejaVuSans-29" transform="translate(485.793765 -50.448437) scale(0.7)"/>
       <path d="M 0 18.965625 
L 0 25.215625 
L 513.103335 25.215625 
L 513.103335 18.965625 
L 0 18.965625 
z
"/>
      </g>
     </g>
    </g>
    <g id="ytick_2">
     <g id="line2d_4">
      <g>
       <use xlink:href="#m3c0b8f2887" x="72.06" y="142.627396" style="stroke: #000000; stroke-width: 0.8"/>
      </g>
     </g>
     <g id="text_5">
      <!-- 1 -->
      <g transform="translate(58.06125 146.806537) scale(0.11 -0.11)">
       <use xlink:href="#DejaVuSans-31"/>
      </g>
     </g>
    </g>
   </g>
   <g id="line2d_5">
    <path d="M 150.304127 246.24358 
L 170.025395 245.841612 
L 186.712621 245.278263 
L 201.882826 244.545943 
L 215.536011 243.67694 
L 229.189196 242.581995 
L 241.325361 241.397921 
L 253.461525 239.996358 
L 265.597689 238.358967 
L 276.216833 236.718382 
L 286.835977 234.870917 
L 297.455121 232.804287 
L 308.074265 230.506209 
L 318.693409 227.964396 
L 329.312553 225.166565 
L 338.414676 222.555342 
L 347.516799 219.739262 
L 356.618922 216.710589 
L 365.721046 213.461587 
L 374.823169 209.98452 
L 383.925292 206.271652 
L 393.027416 202.315246 
L 402.129539 198.107566 
L 411.231662 193.640876 
L 420.333786 188.907441 
L 429.435909 183.899524 
L 438.538032 178.609388 
L 447.640156 173.029298 
L 456.742279 167.151518 
L 465.844402 160.968312 
L 474.946525 154.471943 
L 484.048649 147.654675 
L 493.150772 140.508772 
L 502.252895 133.026498 
L 511.355019 125.200117 
L 520.457142 117.021893 
L 529.559265 108.484089 
L 537.144368 101.088993 
L 544.729471 93.434339 
L 552.314574 85.515652 
L 559.899676 77.328453 
L 569.0018 67.143077 
L 578.103923 56.556862 
L 587.206046 45.562073 
L 596.30817 34.150972 
L 603.893272 24.318125 
L 603.893272 24.318125 
" clip-path="url(#pf740e1af0c)" style="fill: none; stroke: #6a9bcc; stroke-width: 2.6; stroke-linecap: square"/>
   </g>
   <g id="line2d_6">
    <path d="M 392.218338 257.339852 
L 392.218338 13.221852 
" clip-path="url(#pf740e1af0c)" style="fill: none; stroke-dasharray: 3.7,1.6; stroke-dashoffset: 0; stroke: #b0aea5"/>
   </g>
   <g id="line2d_7">
    <path d="M 490.495986 257.339852 
L 490.495986 13.221852 
" clip-path="url(#pf740e1af0c)" style="fill: none; stroke-dasharray: 3.7,1.6; stroke-dashoffset: 0; stroke: #b0aea5"/>
   </g>
   <g id="line2d_8">
    <path d="M 97.385394 202.676987 
L 392.218338 202.676987 
" clip-path="url(#pf740e1af0c)" style="fill: none; stroke-dasharray: 3.7,1.6; stroke-dashoffset: 0; stroke: #b0aea5"/>
   </g>
   <g id="line2d_9">
    <path d="M 97.385394 142.627396 
L 490.495986 142.627396 
" clip-path="url(#pf740e1af0c)" style="fill: none; stroke-dasharray: 3.7,1.6; stroke-dashoffset: 0; stroke: #b0aea5"/>
   </g>
   <g id="patch_3">
    <path d="M 72.06 257.339852 
L 72.06 13.221852 
" style="fill: none; stroke: #000000; stroke-width: 0.8; stroke-linejoin: miter; stroke-linecap: square"/>
   </g>
   <g id="patch_4">
    <path d="M 72.06 257.339852 
L 629.218666 257.339852 
" style="fill: none; stroke: #000000; stroke-width: 0.8; stroke-linejoin: miter; stroke-linecap: square"/>
   </g>
   <g id="text_6">
    <!-- $c'(e)$ -->
    <g transform="translate(558.893272 16.318125) scale(0.12 -0.12)">
     <use xlink:href="#DejaVuSans-Oblique-63" transform="translate(0 0.584375)"/>
     <use xlink:href="#Cmsy10-30" transform="translate(59.630365 38.865625) scale(0.7)"/>
     <use xlink:href="#DejaVuSans-28" transform="translate(81.607904 0.584375)"/>
     <use xlink:href="#DejaVuSans-Oblique-65" transform="translate(120.621576 0.584375)"/>
     <use xlink:href="#DejaVuSans-29" transform="translate(182.145013 0.584375)"/>
    </g>
   </g>
  </g>
 </g>
 <defs>
  <clipPath id="pf740e1af0c">
   <rect x="72.06" y="13.221852" width="557.158666" height="244.118"/>
  </clipPath>
 </defs>
</svg>
