<?xml version="1.0" encoding="utf-8" standalone="no"?>
<!DOCTYPE svg PUBLIC "-//W3C//DTD SVG 1.1//EN"
  "http://www.w3.org/Graphics/SVG/1.1/DTD/svg11.dtd">
<svg xmlns:xlink="http://www.w3.org/1999/xlink" width="636.84375pt" height="247.702494pt" viewBox="0 0 636.84375 247.702494" xmlns="http://www.w3.org/2000/svg" version="1.1">
 <metadata>
  <rdf:RDF xmlns:dc="http://purl.org/dc/elements/1.1/" xmlns:cc="http://creativecommons.org/ns#" xmlns:rdf="http://www.w3.org/1999/02/22-rdf-syntax-ns#">
   <cc:Work>
    <dc:type rdf:resource="http://purl.org/dc/dcmitype/StillImage"/>
    <dc:date>2026-08-05T21:06:49.021527</dc:date>
    <dc:format>image/svg+xml</dc:format>
    <dc:creator>
     <cc:Agent>
      <dc:title>Matplotlib v3.9.2, https://matplotlib.org/</dc:title>
     </cc:Agent>
    </dc:creator>
   </cc:Work>
  </rdf:RDF>
 </metadata>
 <defs>
  <style type="text/css">*{stroke-linejoin: round; stroke-linecap: butt}</style>
 </defs>
 <g id="figure_1">
  <g id="patch_1">
   <path d="M 0 247.702494 
L 636.84375 247.702494 
L 636.84375 0 
L 0 0 
z
" style="fill: #ffffff"/>
  </g>
  <g id="axes_1">
   <g id="patch_2">
    <path d="M 22.81375 205.976869 
L 629.64375 205.976869 
L 629.64375 15.38185 
L 22.81375 15.38185 
z
" style="fill: #ffffff"/>
   </g>
   <g id="PolyCollection_1">
    <defs>
     <path id="mffd95e751a" d="M 50.396932 -50.389035 
L 50.396932 -50.768072 
L 51.779547 -50.792014 
L 53.162163 -50.817336 
L 54.544779 -50.844109 
L 55.927394 -50.872407 
L 57.31001 -50.902306 
L 58.692626 -50.933888 
L 60.075241 -50.967234 
L 61.457857 -51.002433 
L 62.840472 -51.039574 
L 64.223088 -51.078751 
L 65.605704 -51.120063 
L 66.988319 -51.163611 
L 68.370935 -51.209501 
L 69.753551 -51.257841 
L 71.136166 -51.308747 
L 72.518782 -51.362336 
L 73.901398 -51.418731 
L 75.284013 -51.478058 
L 76.666629 -51.540448 
L 78.049244 -51.606039 
L 79.43186 -51.67497 
L 80.814476 -51.747387 
L 82.197091 -51.82344 
L 83.579707 -51.903286 
L 84.962323 -51.987084 
L 86.344938 -52.075 
L 87.727554 -52.167206 
L 89.110169 -52.263878 
L 90.492785 -52.365197 
L 91.875401 -52.47135 
L 93.258016 -52.58253 
L 94.640632 -52.698936 
L 96.023248 -52.82077 
L 97.405863 -52.948242 
L 98.788479 -53.081568 
L 100.171094 -53.220968 
L 101.55371 -53.366668 
L 102.936326 -53.518901 
L 104.318941 -53.677905 
L 105.701557 -53.843922 
L 107.084173 -54.017204 
L 108.466788 -54.198003 
L 109.849404 -54.386582 
L 111.23202 -54.583206 
L 112.614635 -54.788147 
L 113.997251 -55.001682 
L 115.379866 -55.224094 
L 116.762482 -55.45567 
L 118.145098 -55.696704 
L 119.527713 -55.947493 
L 120.910329 -56.208341 
L 122.292945 -56.479556 
L 123.67556 -56.761448 
L 125.058176 -57.054336 
L 126.440791 -57.358541 
L 127.823407 -57.674386 
L 129.206023 -58.002201 
L 130.588638 -58.342319 
L 131.971254 -58.695074 
L 133.35387 -59.060806 
L 134.736485 -59.439856 
L 136.119101 -59.832567 
L 137.501717 -60.239285 
L 138.884332 -60.660359 
L 140.266948 -61.096136 
L 141.649563 -61.546967 
L 143.032179 -62.013202 
L 144.414795 -62.495192 
L 145.79741 -62.993288 
L 147.180026 -63.507839 
L 148.562642 -64.039193 
L 149.945257 -64.587699 
L 151.327873 -65.1537 
L 152.710488 -65.737538 
L 154.093104 -66.339554 
L 155.47572 -66.960081 
L 156.858335 -67.59945 
L 158.240951 -68.257988 
L 159.623567 -68.936015 
L 161.006182 -69.633845 
L 162.388798 -70.351786 
L 163.771413 -71.090137 
L 165.154029 -71.849191 
L 166.536645 -72.629232 
L 167.91926 -73.430532 
L 169.301876 -74.253357 
L 170.684492 -75.097959 
L 172.067107 -75.96458 
L 173.449723 -76.853449 
L 174.832339 -77.764784 
L 176.214954 -78.698787 
L 177.59757 -79.655646 
L 178.980185 -80.635537 
L 180.362801 -81.638616 
L 181.745417 -82.665025 
L 183.128032 -83.714887 
L 184.510648 -84.788311 
L 185.893264 -85.885382 
L 187.275879 -87.006169 
L 188.658495 -88.15072 
L 190.04111 -89.319063 
L 191.423726 -90.511204 
L 192.806342 -91.727125 
L 194.188957 -92.966789 
L 195.571573 -94.230132 
L 195.571573 -50.389035 
L 195.571573 -50.389035 
L 194.188957 -50.389035 
L 192.806342 -50.389035 
L 191.423726 -50.389035 
L 190.04111 -50.389035 
L 188.658495 -50.389035 
L 187.275879 -50.389035 
L 185.893264 -50.389035 
L 184.510648 -50.389035 
L 183.128032 -50.389035 
L 181.745417 -50.389035 
L 180.362801 -50.389035 
L 178.980185 -50.389035 
L 177.59757 -50.389035 
L 176.214954 -50.389035 
L 174.832339 -50.389035 
L 173.449723 -50.389035 
L 172.067107 -50.389035 
L 170.684492 -50.389035 
L 169.301876 -50.389035 
L 167.91926 -50.389035 
L 166.536645 -50.389035 
L 165.154029 -50.389035 
L 163.771413 -50.389035 
L 162.388798 -50.389035 
L 161.006182 -50.389035 
L 159.623567 -50.389035 
L 158.240951 -50.389035 
L 156.858335 -50.389035 
L 155.47572 -50.389035 
L 154.093104 -50.389035 
L 152.710488 -50.389035 
L 151.327873 -50.389035 
L 149.945257 -50.389035 
L 148.562642 -50.389035 
L 147.180026 -50.389035 
L 145.79741 -50.389035 
L 144.414795 -50.389035 
L 143.032179 -50.389035 
L 141.649563 -50.389035 
L 140.266948 -50.389035 
L 138.884332 -50.389035 
L 137.501717 -50.389035 
L 136.119101 -50.389035 
L 134.736485 -50.389035 
L 133.35387 -50.389035 
L 131.971254 -50.389035 
L 130.588638 -50.389035 
L 129.206023 -50.389035 
L 127.823407 -50.389035 
L 126.440791 -50.389035 
L 125.058176 -50.389035 
L 123.67556 -50.389035 
L 122.292945 -50.389035 
L 120.910329 -50.389035 
L 119.527713 -50.389035 
L 118.145098 -50.389035 
L 116.762482 -50.389035 
L 115.379866 -50.389035 
L 113.997251 -50.389035 
L 112.614635 -50.389035 
L 111.23202 -50.389035 
L 109.849404 -50.389035 
L 108.466788 -50.389035 
L 107.084173 -50.389035 
L 105.701557 -50.389035 
L 104.318941 -50.389035 
L 102.936326 -50.389035 
L 101.55371 -50.389035 
L 100.171094 -50.389035 
L 98.788479 -50.389035 
L 97.405863 -50.389035 
L 96.023248 -50.389035 
L 94.640632 -50.389035 
L 93.258016 -50.389035 
L 91.875401 -50.389035 
L 90.492785 -50.389035 
L 89.110169 -50.389035 
L 87.727554 -50.389035 
L 86.344938 -50.389035 
L 84.962323 -50.389035 
L 83.579707 -50.389035 
L 82.197091 -50.389035 
L 80.814476 -50.389035 
L 79.43186 -50.389035 
L 78.049244 -50.389035 
L 76.666629 -50.389035 
L 75.284013 -50.389035 
L 73.901398 -50.389035 
L 72.518782 -50.389035 
L 71.136166 -50.389035 
L 69.753551 -50.389035 
L 68.370935 -50.389035 
L 66.988319 -50.389035 
L 65.605704 -50.389035 
L 64.223088 -50.389035 
L 62.840472 -50.389035 
L 61.457857 -50.389035 
L 60.075241 -50.389035 
L 58.692626 -50.389035 
L 57.31001 -50.389035 
L 55.927394 -50.389035 
L 54.544779 -50.389035 
L 53.162163 -50.389035 
L 51.779547 -50.389035 
L 50.396932 -50.389035 
z
" style="stroke: #d97757; stroke-opacity: 0.35"/>
    </defs>
    <g clip-path="url(#p79c37048de)">
     <use xlink:href="#mffd95e751a" x="0" y="247.702494" style="fill: #d97757; fill-opacity: 0.35; stroke: #d97757; stroke-opacity: 0.35"/>
    </g>
   </g>
   <g id="matplotlib.axis_1">
    <g id="xtick_1">
     <g id="line2d_1">
      <defs>
       <path id="m337269df7d" d="M 0 0 
L 0 3.5 
" style="stroke: #000000; stroke-width: 0.8"/>
      </defs>
      <g>
       <use xlink:href="#m337269df7d" x="89.801477" y="205.976869" style="stroke: #000000; stroke-width: 0.8"/>
      </g>
     </g>
     <g id="text_1">
      <!-- −3 -->
      <g transform="translate(80.956165 222.094994) scale(0.12 -0.12)">
       <defs>
        <path id="DejaVuSans-2212" d="M 678 2272 
L 4684 2272 
L 4684 1741 
L 678 1741 
L 678 2272 
z
" transform="scale(0.015625)"/>
        <path id="DejaVuSans-33" d="M 2597 2516 
Q 3050 2419 3304 2112 
Q 3559 1806 3559 1356 
Q 3559 666 3084 287 
Q 2609 -91 1734 -91 
Q 1441 -91 1130 -33 
Q 819 25 488 141 
L 488 750 
Q 750 597 1062 519 
Q 1375 441 1716 441 
Q 2309 441 2620 675 
Q 2931 909 2931 1356 
Q 2931 1769 2642 2001 
Q 2353 2234 1838 2234 
L 1294 2234 
L 1294 2753 
L 1863 2753 
Q 2328 2753 2575 2939 
Q 2822 3125 2822 3475 
Q 2822 3834 2567 4026 
Q 2313 4219 1838 4219 
Q 1578 4219 1281 4162 
Q 984 4106 628 3988 
L 628 4550 
Q 988 4650 1302 4700 
Q 1616 4750 1894 4750 
Q 2613 4750 3031 4423 
Q 3450 4097 3450 3541 
Q 3450 3153 3228 2886 
Q 3006 2619 2597 2516 
z
" transform="scale(0.015625)"/>
       </defs>
       <use xlink:href="#DejaVuSans-2212"/>
       <use xlink:href="#DejaVuSans-33" x="83.789062"/>
      </g>
     </g>
    </g>
    <g id="xtick_2">
     <g id="line2d_2">
      <g>
       <use xlink:href="#m337269df7d" x="168.610568" y="205.976869" style="stroke: #000000; stroke-width: 0.8"/>
      </g>
     </g>
     <g id="text_2">
      <!-- −2 -->
      <g transform="translate(159.765256 222.094994) scale(0.12 -0.12)">
       <defs>
        <path id="DejaVuSans-32" d="M 1228 531 
L 3431 531 
L 3431 0 
L 469 0 
L 469 531 
Q 828 903 1448 1529 
Q 2069 2156 2228 2338 
Q 2531 2678 2651 2914 
Q 2772 3150 2772 3378 
Q 2772 3750 2511 3984 
Q 2250 4219 1831 4219 
Q 1534 4219 1204 4116 
Q 875 4013 500 3803 
L 500 4441 
Q 881 4594 1212 4672 
Q 1544 4750 1819 4750 
Q 2544 4750 2975 4387 
Q 3406 4025 3406 3419 
Q 3406 3131 3298 2873 
Q 3191 2616 2906 2266 
Q 2828 2175 2409 1742 
Q 1991 1309 1228 531 
z
" transform="scale(0.015625)"/>
       </defs>
       <use xlink:href="#DejaVuSans-2212"/>
       <use xlink:href="#DejaVuSans-32" x="83.789062"/>
      </g>
     </g>
    </g>
    <g id="xtick_3">
     <g id="line2d_3">
      <g>
       <use xlink:href="#m337269df7d" x="247.419659" y="205.976869" style="stroke: #000000; stroke-width: 0.8"/>
      </g>
     </g>
     <g id="text_3">
      <!-- −1 -->
      <g transform="translate(238.574347 222.094994) scale(0.12 -0.12)">
       <defs>
        <path id="DejaVuSans-31" d="M 794 531 
L 1825 531 
L 1825 4091 
L 703 3866 
L 703 4441 
L 1819 4666 
L 2450 4666 
L 2450 531 
L 3481 531 
L 3481 0 
L 794 0 
L 794 531 
z
" transform="scale(0.015625)"/>
       </defs>
       <use xlink:href="#DejaVuSans-2212"/>
       <use xlink:href="#DejaVuSans-31" x="83.789062"/>
      </g>
     </g>
    </g>
    <g id="xtick_4">
     <g id="line2d_4">
      <g>
       <use xlink:href="#m337269df7d" x="326.22875" y="205.976869" style="stroke: #000000; stroke-width: 0.8"/>
      </g>
     </g>
     <g id="text_4">
      <!-- 0 -->
      <g transform="translate(322.41125 222.094994) scale(0.12 -0.12)">
       <defs>
        <path id="DejaVuSans-30" d="M 2034 4250 
Q 1547 4250 1301 3770 
Q 1056 3291 1056 2328 
Q 1056 1369 1301 889 
Q 1547 409 2034 409 
Q 2525 409 2770 889 
Q 3016 1369 3016 2328 
Q 3016 3291 2770 3770 
Q 2525 4250 2034 4250 
z
M 2034 4750 
Q 2819 4750 3233 4129 
Q 3647 3509 3647 2328 
Q 3647 1150 3233 529 
Q 2819 -91 2034 -91 
Q 1250 -91 836 529 
Q 422 1150 422 2328 
Q 422 3509 836 4129 
Q 1250 4750 2034 4750 
z
" transform="scale(0.015625)"/>
       </defs>
       <use xlink:href="#DejaVuSans-30"/>
      </g>
     </g>
    </g>
    <g id="xtick_5">
     <g id="line2d_5">
      <g>
       <use xlink:href="#m337269df7d" x="405.037841" y="205.976869" style="stroke: #000000; stroke-width: 0.8"/>
      </g>
     </g>
     <g id="text_5">
      <!-- 1 -->
      <g transform="translate(401.220341 222.094994) scale(0.12 -0.12)">
       <use xlink:href="#DejaVuSans-31"/>
      </g>
     </g>
    </g>
    <g id="xtick_6">
     <g id="line2d_6">
      <g>
       <use xlink:href="#m337269df7d" x="483.846932" y="205.976869" style="stroke: #000000; stroke-width: 0.8"/>
      </g>
     </g>
     <g id="text_6">
      <!-- 2 -->
      <g transform="translate(480.029432 222.094994) scale(0.12 -0.12)">
       <use xlink:href="#DejaVuSans-32"/>
      </g>
     </g>
    </g>
    <g id="xtick_7">
     <g id="line2d_7">
      <g>
       <use xlink:href="#m337269df7d" x="562.656023" y="205.976869" style="stroke: #000000; stroke-width: 0.8"/>
      </g>
     </g>
     <g id="text_7">
      <!-- 3 -->
      <g transform="translate(558.838523 222.094994) scale(0.12 -0.12)">
       <use xlink:href="#DejaVuSans-33"/>
      </g>
     </g>
    </g>
    <g id="text_8">
     <!-- retorno (desvios em relação à média) -->
     <g transform="translate(213.572187 238.006869) scale(0.12 -0.12)">
      <defs>
       <path id="DejaVuSans-72" d="M 2631 2963 
Q 2534 3019 2420 3045 
Q 2306 3072 2169 3072 
Q 1681 3072 1420 2755 
Q 1159 2438 1159 1844 
L 1159 0 
L 581 0 
L 581 3500 
L 1159 3500 
L 1159 2956 
Q 1341 3275 1631 3429 
Q 1922 3584 2338 3584 
Q 2397 3584 2469 3576 
Q 2541 3569 2628 3553 
L 2631 2963 
z
" transform="scale(0.015625)"/>
       <path id="DejaVuSans-65" d="M 3597 1894 
L 3597 1613 
L 953 1613 
Q 991 1019 1311 708 
Q 1631 397 2203 397 
Q 2534 397 2845 478 
Q 3156 559 3463 722 
L 3463 178 
Q 3153 47 2828 -22 
Q 2503 -91 2169 -91 
Q 1331 -91 842 396 
Q 353 884 353 1716 
Q 353 2575 817 3079 
Q 1281 3584 2069 3584 
Q 2775 3584 3186 3129 
Q 3597 2675 3597 1894 
z
M 3022 2063 
Q 3016 2534 2758 2815 
Q 2500 3097 2075 3097 
Q 1594 3097 1305 2825 
Q 1016 2553 972 2059 
L 3022 2063 
z
" transform="scale(0.015625)"/>
       <path id="DejaVuSans-74" d="M 1172 4494 
L 1172 3500 
L 2356 3500 
L 2356 3053 
L 1172 3053 
L 1172 1153 
Q 1172 725 1289 603 
Q 1406 481 1766 481 
L 2356 481 
L 2356 0 
L 1766 0 
Q 1100 0 847 248 
Q 594 497 594 1153 
L 594 3053 
L 172 3053 
L 172 3500 
L 594 3500 
L 594 4494 
L 1172 4494 
z
" transform="scale(0.015625)"/>
       <path id="DejaVuSans-6f" d="M 1959 3097 
Q 1497 3097 1228 2736 
Q 959 2375 959 1747 
Q 959 1119 1226 758 
Q 1494 397 1959 397 
Q 2419 397 2687 759 
Q 2956 1122 2956 1747 
Q 2956 2369 2687 2733 
Q 2419 3097 1959 3097 
z
M 1959 3584 
Q 2709 3584 3137 3096 
Q 3566 2609 3566 1747 
Q 3566 888 3137 398 
Q 2709 -91 1959 -91 
Q 1206 -91 779 398 
Q 353 888 353 1747 
Q 353 2609 779 3096 
Q 1206 3584 1959 3584 
z
" transform="scale(0.015625)"/>
       <path id="DejaVuSans-6e" d="M 3513 2113 
L 3513 0 
L 2938 0 
L 2938 2094 
Q 2938 2591 2744 2837 
Q 2550 3084 2163 3084 
Q 1697 3084 1428 2787 
Q 1159 2491 1159 1978 
L 1159 0 
L 581 0 
L 581 3500 
L 1159 3500 
L 1159 2956 
Q 1366 3272 1645 3428 
Q 1925 3584 2291 3584 
Q 2894 3584 3203 3211 
Q 3513 2838 3513 2113 
z
" transform="scale(0.015625)"/>
       <path id="DejaVuSans-20" transform="scale(0.015625)"/>
       <path id="DejaVuSans-28" d="M 1984 4856 
Q 1566 4138 1362 3434 
Q 1159 2731 1159 2009 
Q 1159 1288 1364 580 
Q 1569 -128 1984 -844 
L 1484 -844 
Q 1016 -109 783 600 
Q 550 1309 550 2009 
Q 550 2706 781 3412 
Q 1013 4119 1484 4856 
L 1984 4856 
z
" transform="scale(0.015625)"/>
       <path id="DejaVuSans-64" d="M 2906 2969 
L 2906 4863 
L 3481 4863 
L 3481 0 
L 2906 0 
L 2906 525 
Q 2725 213 2448 61 
Q 2172 -91 1784 -91 
Q 1150 -91 751 415 
Q 353 922 353 1747 
Q 353 2572 751 3078 
Q 1150 3584 1784 3584 
Q 2172 3584 2448 3432 
Q 2725 3281 2906 2969 
z
M 947 1747 
Q 947 1113 1208 752 
Q 1469 391 1925 391 
Q 2381 391 2643 752 
Q 2906 1113 2906 1747 
Q 2906 2381 2643 2742 
Q 2381 3103 1925 3103 
Q 1469 3103 1208 2742 
Q 947 2381 947 1747 
z
" transform="scale(0.015625)"/>
       <path id="DejaVuSans-73" d="M 2834 3397 
L 2834 2853 
Q 2591 2978 2328 3040 
Q 2066 3103 1784 3103 
Q 1356 3103 1142 2972 
Q 928 2841 928 2578 
Q 928 2378 1081 2264 
Q 1234 2150 1697 2047 
L 1894 2003 
Q 2506 1872 2764 1633 
Q 3022 1394 3022 966 
Q 3022 478 2636 193 
Q 2250 -91 1575 -91 
Q 1294 -91 989 -36 
Q 684 19 347 128 
L 347 722 
Q 666 556 975 473 
Q 1284 391 1588 391 
Q 1994 391 2212 530 
Q 2431 669 2431 922 
Q 2431 1156 2273 1281 
Q 2116 1406 1581 1522 
L 1381 1569 
Q 847 1681 609 1914 
Q 372 2147 372 2553 
Q 372 3047 722 3315 
Q 1072 3584 1716 3584 
Q 2034 3584 2315 3537 
Q 2597 3491 2834 3397 
z
" transform="scale(0.015625)"/>
       <path id="DejaVuSans-76" d="M 191 3500 
L 800 3500 
L 1894 563 
L 2988 3500 
L 3597 3500 
L 2284 0 
L 1503 0 
L 191 3500 
z
" transform="scale(0.015625)"/>
       <path id="DejaVuSans-69" d="M 603 3500 
L 1178 3500 
L 1178 0 
L 603 0 
L 603 3500 
z
M 603 4863 
L 1178 4863 
L 1178 4134 
L 603 4134 
L 603 4863 
z
" transform="scale(0.015625)"/>
       <path id="DejaVuSans-6d" d="M 3328 2828 
Q 3544 3216 3844 3400 
Q 4144 3584 4550 3584 
Q 5097 3584 5394 3201 
Q 5691 2819 5691 2113 
L 5691 0 
L 5113 0 
L 5113 2094 
Q 5113 2597 4934 2840 
Q 4756 3084 4391 3084 
Q 3944 3084 3684 2787 
Q 3425 2491 3425 1978 
L 3425 0 
L 2847 0 
L 2847 2094 
Q 2847 2600 2669 2842 
Q 2491 3084 2119 3084 
Q 1678 3084 1418 2786 
Q 1159 2488 1159 1978 
L 1159 0 
L 581 0 
L 581 3500 
L 1159 3500 
L 1159 2956 
Q 1356 3278 1631 3431 
Q 1906 3584 2284 3584 
Q 2666 3584 2933 3390 
Q 3200 3197 3328 2828 
z
" transform="scale(0.015625)"/>
       <path id="DejaVuSans-6c" d="M 603 4863 
L 1178 4863 
L 1178 0 
L 603 0 
L 603 4863 
z
" transform="scale(0.015625)"/>
       <path id="DejaVuSans-61" d="M 2194 1759 
Q 1497 1759 1228 1600 
Q 959 1441 959 1056 
Q 959 750 1161 570 
Q 1363 391 1709 391 
Q 2188 391 2477 730 
Q 2766 1069 2766 1631 
L 2766 1759 
L 2194 1759 
z
M 3341 1997 
L 3341 0 
L 2766 0 
L 2766 531 
Q 2569 213 2275 61 
Q 1981 -91 1556 -91 
Q 1019 -91 701 211 
Q 384 513 384 1019 
Q 384 1609 779 1909 
Q 1175 2209 1959 2209 
L 2766 2209 
L 2766 2266 
Q 2766 2663 2505 2880 
Q 2244 3097 1772 3097 
Q 1472 3097 1187 3025 
Q 903 2953 641 2809 
L 641 3341 
Q 956 3463 1253 3523 
Q 1550 3584 1831 3584 
Q 2591 3584 2966 3190 
Q 3341 2797 3341 1997 
z
" transform="scale(0.015625)"/>
       <path id="DejaVuSans-e7" d="M 3122 3366 
L 3122 2828 
Q 2878 2963 2633 3030 
Q 2388 3097 2138 3097 
Q 1578 3097 1268 2742 
Q 959 2388 959 1747 
Q 959 1106 1268 751 
Q 1578 397 2138 397 
Q 2388 397 2633 464 
Q 2878 531 3122 666 
L 3122 134 
Q 2881 22 2623 -34 
Q 2366 -91 2075 -91 
Q 1284 -91 818 406 
Q 353 903 353 1747 
Q 353 2603 823 3093 
Q 1294 3584 2113 3584 
Q 2378 3584 2631 3529 
Q 2884 3475 3122 3366 
z
M 2309 0 
Q 2481 -194 2565 -358 
Q 2650 -522 2650 -672 
Q 2650 -950 2462 -1092 
Q 2275 -1234 1906 -1234 
Q 1763 -1234 1627 -1215 
Q 1491 -1197 1356 -1159 
L 1356 -750 
Q 1463 -803 1578 -826 
Q 1694 -850 1841 -850 
Q 2025 -850 2119 -775 
Q 2213 -700 2213 -556 
Q 2213 -463 2145 -327 
Q 2078 -191 1938 0 
L 2309 0 
z
" transform="scale(0.015625)"/>
       <path id="DejaVuSans-e3" d="M 2194 1759 
Q 1497 1759 1228 1600 
Q 959 1441 959 1056 
Q 959 750 1161 570 
Q 1363 391 1709 391 
Q 2188 391 2477 730 
Q 2766 1069 2766 1631 
L 2766 1759 
L 2194 1759 
z
M 3341 1997 
L 3341 0 
L 2766 0 
L 2766 531 
Q 2569 213 2275 61 
Q 1981 -91 1556 -91 
Q 1019 -91 701 211 
Q 384 513 384 1019 
Q 384 1609 779 1909 
Q 1175 2209 1959 2209 
L 2766 2209 
L 2766 2266 
Q 2766 2663 2505 2880 
Q 2244 3097 1772 3097 
Q 1472 3097 1187 3025 
Q 903 2953 641 2809 
L 641 3341 
Q 956 3463 1253 3523 
Q 1550 3584 1831 3584 
Q 2591 3584 2966 3190 
Q 3341 2797 3341 1997 
z
M 1844 4281 
L 1666 4453 
Q 1597 4516 1545 4545 
Q 1494 4575 1453 4575 
Q 1334 4575 1278 4461 
Q 1222 4347 1216 4091 
L 825 4091 
Q 831 4513 990 4742 
Q 1150 4972 1434 4972 
Q 1553 4972 1653 4928 
Q 1753 4884 1869 4781 
L 2047 4609 
Q 2116 4547 2167 4517 
Q 2219 4488 2259 4488 
Q 2378 4488 2434 4602 
Q 2491 4716 2497 4972 
L 2888 4972 
Q 2881 4550 2722 4320 
Q 2563 4091 2278 4091 
Q 2159 4091 2059 4134 
Q 1959 4178 1844 4281 
z
" transform="scale(0.015625)"/>
       <path id="DejaVuSans-e0" d="M 2194 1759 
Q 1497 1759 1228 1600 
Q 959 1441 959 1056 
Q 959 750 1161 570 
Q 1363 391 1709 391 
Q 2188 391 2477 730 
Q 2766 1069 2766 1631 
L 2766 1759 
L 2194 1759 
z
M 3341 1997 
L 3341 0 
L 2766 0 
L 2766 531 
Q 2569 213 2275 61 
Q 1981 -91 1556 -91 
Q 1019 -91 701 211 
Q 384 513 384 1019 
Q 384 1609 779 1909 
Q 1175 2209 1959 2209 
L 2766 2209 
L 2766 2266 
Q 2766 2663 2505 2880 
Q 2244 3097 1772 3097 
Q 1472 3097 1187 3025 
Q 903 2953 641 2809 
L 641 3341 
Q 956 3463 1253 3523 
Q 1550 3584 1831 3584 
Q 2591 3584 2966 3190 
Q 3341 2797 3341 1997 
z
M 1403 5119 
L 2284 3950 
L 1806 3950 
L 788 5119 
L 1403 5119 
z
" transform="scale(0.015625)"/>
       <path id="DejaVuSans-e9" d="M 3597 1894 
L 3597 1613 
L 953 1613 
Q 991 1019 1311 708 
Q 1631 397 2203 397 
Q 2534 397 2845 478 
Q 3156 559 3463 722 
L 3463 178 
Q 3153 47 2828 -22 
Q 2503 -91 2169 -91 
Q 1331 -91 842 396 
Q 353 884 353 1716 
Q 353 2575 817 3079 
Q 1281 3584 2069 3584 
Q 2775 3584 3186 3129 
Q 3597 2675 3597 1894 
z
M 3022 2063 
Q 3016 2534 2758 2815 
Q 2500 3097 2075 3097 
Q 1594 3097 1305 2825 
Q 1016 2553 972 2059 
L 3022 2063 
z
M 2469 5119 
L 3091 5119 
L 2072 3944 
L 1594 3944 
L 2469 5119 
z
" transform="scale(0.015625)"/>
       <path id="DejaVuSans-29" d="M 513 4856 
L 1013 4856 
Q 1481 4119 1714 3412 
Q 1947 2706 1947 2009 
Q 1947 1309 1714 600 
Q 1481 -109 1013 -844 
L 513 -844 
Q 928 -128 1133 580 
Q 1338 1288 1338 2009 
Q 1338 2731 1133 3434 
Q 928 4138 513 4856 
z
" transform="scale(0.015625)"/>
      </defs>
      <use xlink:href="#DejaVuSans-72"/>
      <use xlink:href="#DejaVuSans-65" x="38.863281"/>
      <use xlink:href="#DejaVuSans-74" x="100.386719"/>
      <use xlink:href="#DejaVuSans-6f" x="139.595703"/>
      <use xlink:href="#DejaVuSans-72" x="200.777344"/>
      <use xlink:href="#DejaVuSans-6e" x="240.140625"/>
      <use xlink:href="#DejaVuSans-6f" x="303.519531"/>
      <use xlink:href="#DejaVuSans-20" x="364.701172"/>
      <use xlink:href="#DejaVuSans-28" x="396.488281"/>
      <use xlink:href="#DejaVuSans-64" x="435.501953"/>
      <use xlink:href="#DejaVuSans-65" x="498.978516"/>
      <use xlink:href="#DejaVuSans-73" x="560.501953"/>
      <use xlink:href="#DejaVuSans-76" x="612.601562"/>
      <use xlink:href="#DejaVuSans-69" x="671.78125"/>
      <use xlink:href="#DejaVuSans-6f" x="699.564453"/>
      <use xlink:href="#DejaVuSans-73" x="760.746094"/>
      <use xlink:href="#DejaVuSans-20" x="812.845703"/>
      <use xlink:href="#DejaVuSans-65" x="844.632812"/>
      <use xlink:href="#DejaVuSans-6d" x="906.15625"/>
      <use xlink:href="#DejaVuSans-20" x="1003.568359"/>
      <use xlink:href="#DejaVuSans-72" x="1035.355469"/>
      <use xlink:href="#DejaVuSans-65" x="1074.21875"/>
      <use xlink:href="#DejaVuSans-6c" x="1135.742188"/>
      <use xlink:href="#DejaVuSans-61" x="1163.525391"/>
      <use xlink:href="#DejaVuSans-e7" x="1224.804688"/>
      <use xlink:href="#DejaVuSans-e3" x="1279.785156"/>
      <use xlink:href="#DejaVuSans-6f" x="1341.064453"/>
      <use xlink:href="#DejaVuSans-20" x="1402.246094"/>
      <use xlink:href="#DejaVuSans-e0" x="1434.033203"/>
      <use xlink:href="#DejaVuSans-20" x="1495.3125"/>
      <use xlink:href="#DejaVuSans-6d" x="1527.099609"/>
      <use xlink:href="#DejaVuSans-e9" x="1624.511719"/>
      <use xlink:href="#DejaVuSans-64" x="1686.035156"/>
      <use xlink:href="#DejaVuSans-69" x="1749.511719"/>
      <use xlink:href="#DejaVuSans-61" x="1777.294922"/>
      <use xlink:href="#DejaVuSans-29" x="1838.574219"/>
     </g>
    </g>
   </g>
   <g id="matplotlib.axis_2">
    <g id="text_9">
     <!-- densidade -->
     <g transform="translate(16.318125 141.762172) rotate(-90) scale(0.12 -0.12)">
      <use xlink:href="#DejaVuSans-64"/>
      <use xlink:href="#DejaVuSans-65" x="63.476562"/>
      <use xlink:href="#DejaVuSans-6e" x="125"/>
      <use xlink:href="#DejaVuSans-73" x="188.378906"/>
      <use xlink:href="#DejaVuSans-69" x="240.478516"/>
      <use xlink:href="#DejaVuSans-64" x="268.261719"/>
      <use xlink:href="#DejaVuSans-61" x="331.738281"/>
      <use xlink:href="#DejaVuSans-64" x="393.017578"/>
      <use xlink:href="#DejaVuSans-65" x="456.494141"/>
     </g>
    </g>
   </g>
   <g id="line2d_8">
    <path d="M 50.396932 196.934422 
L 66.988319 196.538883 
L 79.43186 196.027525 
L 90.492785 195.337298 
L 98.788479 194.620926 
L 107.084173 193.685291 
L 113.997251 192.700812 
L 120.910329 191.494153 
L 127.823407 190.028108 
L 133.35387 188.641688 
L 138.884332 187.042136 
L 144.414795 185.207302 
L 149.945257 183.114796 
L 155.47572 180.742414 
L 161.006182 178.068649 
L 166.536645 175.073263 
L 170.684492 172.604535 
L 174.832339 169.93771 
L 178.980185 167.066958 
L 183.128032 163.987607 
L 187.275879 160.696325 
L 192.806342 155.975369 
L 198.336804 150.875006 
L 203.867267 145.401627 
L 209.397729 139.568212 
L 214.928192 133.394836 
L 220.458654 126.909051 
L 227.371732 118.416943 
L 234.284811 109.578223 
L 243.96312 96.823515 
L 260.554508 74.869074 
L 267.467586 66.089037 
L 272.998048 59.380122 
L 278.528511 53.040449 
L 282.676358 48.576656 
L 286.824205 44.398927 
L 290.972051 40.538735 
L 295.119898 37.025721 
L 299.267745 33.887319 
L 302.032976 32.015565 
L 304.798208 30.328084 
L 307.563439 28.83093 
L 310.32867 27.529511 
L 313.093902 26.428554 
L 315.859133 25.532076 
L 318.624364 24.843362 
L 321.389595 24.364943 
L 324.154827 24.098582 
L 326.920058 24.04526 
L 329.685289 24.205175 
L 332.45052 24.577737 
L 335.215752 25.161572 
L 337.980983 25.954532 
L 340.746214 26.953707 
L 343.511445 28.155442 
L 346.276677 29.555362 
L 349.041908 31.148397 
L 351.807139 32.928811 
L 355.954986 35.936679 
L 360.102833 39.327751 
L 364.25068 43.075409 
L 368.398527 47.150707 
L 372.546374 51.52274 
L 378.076836 57.757396 
L 383.607299 64.38168 
L 390.520377 73.084921 
L 398.816071 83.937409 
L 420.937921 113.149032 
L 427.850999 121.860609 
L 434.764077 130.188973 
L 440.294539 136.522476 
L 445.825002 142.528841 
L 451.355465 148.184294 
L 456.885927 153.472362 
L 462.41639 158.383431 
L 467.946852 162.914184 
L 472.094699 166.063879 
L 476.242546 169.003708 
L 480.390393 171.737915 
L 484.53824 174.271962 
L 490.068702 177.350709 
L 495.599165 180.103044 
L 501.129627 182.548795 
L 506.66009 184.709207 
L 512.190552 186.606358 
L 517.721015 188.262639 
L 523.251477 189.700293 
L 528.78194 190.941046 
L 535.695018 192.246824 
L 542.608096 193.315912 
L 550.90379 194.335826 
L 559.199484 195.119964 
L 568.877793 195.799209 
L 579.938718 196.340158 
L 593.764874 196.768607 
L 602.060568 196.934422 
L 602.060568 196.934422 
" clip-path="url(#p79c37048de)" style="fill: none; stroke: #6a9bcc; stroke-width: 2.4; stroke-linecap: square"/>
   </g>
   <g id="line2d_9">
    <path d="M 326.22875 205.976869 
L 326.22875 15.38185 
" clip-path="url(#p79c37048de)" style="fill: none; stroke: #5f5e5a; stroke-width: 1.4; stroke-linecap: square"/>
   </g>
   <g id="line2d_10">
    <path d="M 379.384674 205.976869 
L 379.384674 15.38185 
" clip-path="url(#p79c37048de)" style="fill: none; stroke-dasharray: 5.18,2.24; stroke-dashoffset: 0; stroke: #788c5d; stroke-width: 1.4"/>
   </g>
   <g id="patch_3">
    <path d="M 22.81375 205.976869 
L 22.81375 15.38185 
" style="fill: none; stroke: #000000; stroke-width: 0.8; stroke-linejoin: miter; stroke-linecap: square"/>
   </g>
   <g id="patch_4">
    <path d="M 22.81375 205.976869 
L 629.64375 205.976869 
" style="fill: none; stroke: #000000; stroke-width: 0.8; stroke-linejoin: miter; stroke-linecap: square"/>
   </g>
   <g id="text_10">
    <!-- 5% menores -->
    <g style="fill: #d97757" transform="translate(130.222768 127.235428) scale(0.09 -0.09)">
     <defs>
      <path id="DejaVuSans-35" d="M 691 4666 
L 3169 4666 
L 3169 4134 
L 1269 4134 
L 1269 2991 
Q 1406 3038 1543 3061 
Q 1681 3084 1819 3084 
Q 2600 3084 3056 2656 
Q 3513 2228 3513 1497 
Q 3513 744 3044 326 
Q 2575 -91 1722 -91 
Q 1428 -91 1123 -41 
Q 819 9 494 109 
L 494 744 
Q 775 591 1075 516 
Q 1375 441 1709 441 
Q 2250 441 2565 725 
Q 2881 1009 2881 1497 
Q 2881 1984 2565 2268 
Q 2250 2553 1709 2553 
Q 1456 2553 1204 2497 
Q 953 2441 691 2322 
L 691 4666 
z
" transform="scale(0.015625)"/>
      <path id="DejaVuSans-25" d="M 4653 2053 
Q 4381 2053 4226 1822 
Q 4072 1591 4072 1178 
Q 4072 772 4226 539 
Q 4381 306 4653 306 
Q 4919 306 5073 539 
Q 5228 772 5228 1178 
Q 5228 1588 5073 1820 
Q 4919 2053 4653 2053 
z
M 4653 2450 
Q 5147 2450 5437 2106 
Q 5728 1763 5728 1178 
Q 5728 594 5436 251 
Q 5144 -91 4653 -91 
Q 4153 -91 3862 251 
Q 3572 594 3572 1178 
Q 3572 1766 3864 2108 
Q 4156 2450 4653 2450 
z
M 1428 4353 
Q 1159 4353 1004 4120 
Q 850 3888 850 3481 
Q 850 3069 1003 2837 
Q 1156 2606 1428 2606 
Q 1700 2606 1854 2837 
Q 2009 3069 2009 3481 
Q 2009 3884 1853 4118 
Q 1697 4353 1428 4353 
z
M 4250 4750 
L 4750 4750 
L 1831 -91 
L 1331 -91 
L 4250 4750 
z
M 1428 4750 
Q 1922 4750 2215 4408 
Q 2509 4066 2509 3481 
Q 2509 2891 2217 2550 
Q 1925 2209 1428 2209 
Q 931 2209 642 2551 
Q 353 2894 353 3481 
Q 353 4063 643 4406 
Q 934 4750 1428 4750 
z
" transform="scale(0.015625)"/>
     </defs>
     <use xlink:href="#DejaVuSans-35"/>
     <use xlink:href="#DejaVuSans-25" x="63.623047"/>
     <use xlink:href="#DejaVuSans-20" x="158.642578"/>
     <use xlink:href="#DejaVuSans-6d" x="190.429688"/>
     <use xlink:href="#DejaVuSans-65" x="287.841797"/>
     <use xlink:href="#DejaVuSans-6e" x="349.365234"/>
     <use xlink:href="#DejaVuSans-6f" x="412.744141"/>
     <use xlink:href="#DejaVuSans-72" x="473.925781"/>
     <use xlink:href="#DejaVuSans-65" x="512.789062"/>
     <use xlink:href="#DejaVuSans-73" x="574.3125"/>
    </g>
    <!-- (5º percentil) -->
    <g style="fill: #d97757" transform="translate(127.280893 137.313459) scale(0.09 -0.09)">
     <defs>
      <path id="DejaVuSans-ba" d="M 434 1850 
L 2584 1850 
L 2584 1466 
L 434 1466 
L 434 1850 
z
M 1509 4750 
Q 2069 4750 2391 4404 
Q 2713 4059 2713 3463 
Q 2713 2866 2391 2523 
Q 2069 2181 1509 2181 
Q 950 2181 625 2525 
Q 300 2869 300 3463 
Q 300 4059 625 4404 
Q 950 4750 1509 4750 
z
M 1509 4391 
Q 1181 4391 984 4139 
Q 788 3888 788 3463 
Q 788 3047 986 2797 
Q 1184 2547 1509 2547 
Q 1838 2547 2033 2797 
Q 2228 3047 2228 3463 
Q 2228 3891 2034 4141 
Q 1841 4391 1509 4391 
z
" transform="scale(0.015625)"/>
      <path id="DejaVuSans-70" d="M 1159 525 
L 1159 -1331 
L 581 -1331 
L 581 3500 
L 1159 3500 
L 1159 2969 
Q 1341 3281 1617 3432 
Q 1894 3584 2278 3584 
Q 2916 3584 3314 3078 
Q 3713 2572 3713 1747 
Q 3713 922 3314 415 
Q 2916 -91 2278 -91 
Q 1894 -91 1617 61 
Q 1341 213 1159 525 
z
M 3116 1747 
Q 3116 2381 2855 2742 
Q 2594 3103 2138 3103 
Q 1681 3103 1420 2742 
Q 1159 2381 1159 1747 
Q 1159 1113 1420 752 
Q 1681 391 2138 391 
Q 2594 391 2855 752 
Q 3116 1113 3116 1747 
z
" transform="scale(0.015625)"/>
      <path id="DejaVuSans-63" d="M 3122 3366 
L 3122 2828 
Q 2878 2963 2633 3030 
Q 2388 3097 2138 3097 
Q 1578 3097 1268 2742 
Q 959 2388 959 1747 
Q 959 1106 1268 751 
Q 1578 397 2138 397 
Q 2388 397 2633 464 
Q 2878 531 3122 666 
L 3122 134 
Q 2881 22 2623 -34 
Q 2366 -91 2075 -91 
Q 1284 -91 818 406 
Q 353 903 353 1747 
Q 353 2603 823 3093 
Q 1294 3584 2113 3584 
Q 2378 3584 2631 3529 
Q 2884 3475 3122 3366 
z
" transform="scale(0.015625)"/>
     </defs>
     <use xlink:href="#DejaVuSans-28"/>
     <use xlink:href="#DejaVuSans-35" x="39.013672"/>
     <use xlink:href="#DejaVuSans-ba" x="102.636719"/>
     <use xlink:href="#DejaVuSans-20" x="149.755859"/>
     <use xlink:href="#DejaVuSans-70" x="181.542969"/>
     <use xlink:href="#DejaVuSans-65" x="245.019531"/>
     <use xlink:href="#DejaVuSans-72" x="306.542969"/>
     <use xlink:href="#DejaVuSans-63" x="345.40625"/>
     <use xlink:href="#DejaVuSans-65" x="400.386719"/>
     <use xlink:href="#DejaVuSans-6e" x="461.910156"/>
     <use xlink:href="#DejaVuSans-74" x="525.289062"/>
     <use xlink:href="#DejaVuSans-69" x="564.498047"/>
     <use xlink:href="#DejaVuSans-6c" x="592.28125"/>
     <use xlink:href="#DejaVuSans-29" x="620.064453"/>
    </g>
   </g>
   <g id="text_11">
    <!-- média/mediana -->
    <g style="fill: #5f5e5a" transform="translate(332.22875 14.038594) scale(0.09 -0.09)">
     <defs>
      <path id="DejaVuSans-2f" d="M 1625 4666 
L 2156 4666 
L 531 -594 
L 0 -594 
L 1625 4666 
z
" transform="scale(0.015625)"/>
     </defs>
     <use xlink:href="#DejaVuSans-6d"/>
     <use xlink:href="#DejaVuSans-e9" x="97.412109"/>
     <use xlink:href="#DejaVuSans-64" x="158.935547"/>
     <use xlink:href="#DejaVuSans-69" x="222.412109"/>
     <use xlink:href="#DejaVuSans-61" x="250.195312"/>
     <use xlink:href="#DejaVuSans-2f" x="311.474609"/>
     <use xlink:href="#DejaVuSans-6d" x="345.166016"/>
     <use xlink:href="#DejaVuSans-65" x="442.578125"/>
     <use xlink:href="#DejaVuSans-64" x="504.101562"/>
     <use xlink:href="#DejaVuSans-69" x="567.578125"/>
     <use xlink:href="#DejaVuSans-61" x="595.361328"/>
     <use xlink:href="#DejaVuSans-6e" x="656.640625"/>
     <use xlink:href="#DejaVuSans-61" x="720.019531"/>
    </g>
   </g>
   <g id="text_12">
    <!-- 3º quartil -->
    <g style="fill: #788c5d" transform="translate(385.384674 137.313459) scale(0.09 -0.09)">
     <defs>
      <path id="DejaVuSans-71" d="M 947 1747 
Q 947 1113 1208 752 
Q 1469 391 1925 391 
Q 2381 391 2643 752 
Q 2906 1113 2906 1747 
Q 2906 2381 2643 2742 
Q 2381 3103 1925 3103 
Q 1469 3103 1208 2742 
Q 947 2381 947 1747 
z
M 2906 525 
Q 2725 213 2448 61 
Q 2172 -91 1784 -91 
Q 1150 -91 751 415 
Q 353 922 353 1747 
Q 353 2572 751 3078 
Q 1150 3584 1784 3584 
Q 2172 3584 2448 3432 
Q 2725 3281 2906 2969 
L 2906 3500 
L 3481 3500 
L 3481 -1331 
L 2906 -1331 
L 2906 525 
z
" transform="scale(0.015625)"/>
      <path id="DejaVuSans-75" d="M 544 1381 
L 544 3500 
L 1119 3500 
L 1119 1403 
Q 1119 906 1312 657 
Q 1506 409 1894 409 
Q 2359 409 2629 706 
Q 2900 1003 2900 1516 
L 2900 3500 
L 3475 3500 
L 3475 0 
L 2900 0 
L 2900 538 
Q 2691 219 2414 64 
Q 2138 -91 1772 -91 
Q 1169 -91 856 284 
Q 544 659 544 1381 
z
M 1991 3584 
L 1991 3584 
z
" transform="scale(0.015625)"/>
     </defs>
     <use xlink:href="#DejaVuSans-33"/>
     <use xlink:href="#DejaVuSans-ba" x="63.623047"/>
     <use xlink:href="#DejaVuSans-20" x="110.742188"/>
     <use xlink:href="#DejaVuSans-71" x="142.529297"/>
     <use xlink:href="#DejaVuSans-75" x="206.005859"/>
     <use xlink:href="#DejaVuSans-61" x="269.384766"/>
     <use xlink:href="#DejaVuSans-72" x="330.664062"/>
     <use xlink:href="#DejaVuSans-74" x="371.777344"/>
     <use xlink:href="#DejaVuSans-69" x="410.986328"/>
     <use xlink:href="#DejaVuSans-6c" x="438.769531"/>
    </g>
   </g>
  </g>
 </g>
 <defs>
  <clipPath id="p79c37048de">
   <rect x="22.81375" y="15.38185" width="606.83" height="190.595019"/>
  </clipPath>
 </defs>
</svg>
